<svg width="92" height="95" viewBox="0 0 92 95" fill="none" xmlns="http://www.w3.org/2000/svg">
<path d="M59.3465 48.7538C60.9826 48.7538 62.4742 48.7538 63.946 48.7538C64.5176 48.7538 64.7147 49.0101 64.741 49.6211C64.787 50.6659 64.8264 51.7172 64.8264 52.7685C64.8264 55.9092 64.8264 59.0565 64.741 62.2038C64.7209 63.0727 64.6041 63.9365 64.3928 64.7795C64.1455 65.8512 63.6378 66.8453 62.9146 67.674C62.1914 68.5026 61.2751 69.1401 60.2467 69.5301C59.0544 70.0249 57.7894 70.3222 56.5015 70.4105C55.1874 70.5091 53.8732 70.5222 52.5591 70.5222C50.7588 70.5222 48.965 70.4302 47.1647 70.4302C38.2024 70.4302 29.2401 70.4302 20.2778 70.4302C19.0809 70.4696 17.8832 70.3859 16.7034 70.1805C13.5232 69.4775 11.6112 67.4078 10.8621 64.267C10.5327 62.4381 10.4224 60.5764 10.5336 58.7214C10.5336 52.8079 10.573 46.8549 10.5336 40.9217C10.5007 29.9553 10.3299 18.989 10.6584 8.02927C10.6108 6.34289 11.1187 4.68758 12.104 3.31815C12.8113 2.32455 13.7411 1.51004 14.8192 0.939632C15.8973 0.369223 17.0938 0.0587028 18.3132 0.032853C19.8967 0 21.4605 0 22.998 0C34.0366 0 45.073 0.0175216 56.1072 0.0525648C56.9151 0.052365 57.7216 0.118291 58.5187 0.249683C60.1335 0.532722 61.5842 1.40923 62.5859 2.70709C63.2429 3.5744 63.9 4.46801 64.557 5.38789C64.7643 5.75066 64.8898 6.15429 64.925 6.5706C65.0277 7.40351 65.0847 8.24142 65.0958 9.08056C65.0958 12.7075 65.1352 16.3082 65.1484 19.9549C65.1537 20.3127 65.1361 20.6704 65.0958 21.0259C65.017 21.683 64.787 21.8735 64.1562 21.8801C62.7195 21.9064 61.2805 21.9064 59.8393 21.8801C59.2348 21.8801 59.1297 21.7618 59.0509 21.1376C58.971 20.6046 58.9271 20.0668 58.9195 19.5278C58.9195 17.5566 58.9195 15.6314 58.9195 13.6866C58.9195 11.7417 58.8472 9.79019 58.8669 7.84529C58.8891 7.52921 58.8434 7.21203 58.7329 6.91505C58.6224 6.61808 58.4497 6.34819 58.2262 6.12351C58.0028 5.89883 57.7339 5.72457 57.4375 5.61242C57.1412 5.50027 56.8243 5.45284 56.5081 5.47331C54.6814 5.51273 52.8548 5.39446 51.0216 5.39446C40.6532 5.39446 30.2826 5.39446 19.9098 5.39446C19.4703 5.39125 19.0311 5.4198 18.5957 5.47988C17.9413 5.50511 17.3199 5.77374 16.8532 6.23314C16.3865 6.69255 16.1081 7.30965 16.0726 7.96356C15.9719 8.67526 15.9236 9.39338 15.928 10.1121C15.928 13.8902 15.974 17.6618 15.9872 21.4333C16.0178 34.4343 16.0463 47.4375 16.0726 60.4429C16.0726 61.2248 16.1449 62.0002 16.2106 62.7755C16.2327 63.2898 16.4297 63.7811 16.769 64.1682C17.1084 64.5554 17.5697 64.815 18.0766 64.9044C18.6055 65.003 19.1419 65.0558 19.6799 65.062C31.5288 65.0533 43.3844 65.0489 55.2465 65.0489C55.8166 65.0377 56.3852 64.9872 56.9483 64.8978C57.5886 64.8604 58.1885 64.5729 58.6187 64.0972C59.0489 63.6215 59.2749 62.9958 59.248 62.355C59.2874 61.8227 59.2874 61.2774 59.248 60.7386C59.248 57.3547 59.202 53.9709 59.1954 50.587C59.2283 50.0417 59.294 49.4832 59.3465 48.7538Z" fill="#13B206"/>
<path d="M41.7551 31.8937C42.0781 31.9765 42.3962 32.0774 42.7079 32.1959C44.022 32.7676 45.3821 33.2669 46.6502 33.9503C51.6242 36.6574 56.9792 37.4853 62.5445 37.275C64.0623 37.2159 65.567 36.9136 67.0782 36.7099C67.3873 36.666 67.6747 36.5257 67.8995 36.3091H66.8942C62.82 36.4286 58.746 36.0624 54.7583 35.2184C51.672 34.6021 48.7098 33.4762 45.9932 31.8871C44.6068 31.0526 43.2072 30.2379 41.7814 29.4888C39.0795 28.0068 36.0025 27.3489 32.9308 27.5965C32.3657 27.6425 31.7941 27.6491 31.2225 27.6557C30.9164 27.6717 30.6105 27.6213 30.3258 27.5078C30.0412 27.3944 29.7844 27.2207 29.5732 26.9986C29.7079 26.7535 29.8959 26.5419 30.1234 26.3792C30.3508 26.2166 30.6119 26.1071 30.8874 26.059C32.1386 25.7146 33.4568 25.6943 34.718 25.9999C37.0506 26.5058 39.3634 27.1431 41.6763 27.7345C43.3715 28.1682 42.8064 28.2536 44.1403 27.2023C44.7513 26.7161 45.3492 26.2167 45.9669 25.7436C48.6808 23.6234 51.881 22.2141 55.2774 21.6436C55.1657 22.2086 55.0869 22.7277 54.9555 23.2336C54.824 23.7396 54.6401 24.2521 54.4364 24.9026C54.7284 24.8645 55.018 24.8096 55.3037 24.7383C57.8819 23.9232 60.588 23.5891 63.287 23.7527C65.7057 23.9574 68.0895 24.4628 70.3832 25.2574C72.2624 25.8553 74.1416 26.4729 76.0405 27.0052C80.1456 28.1635 84.5246 27.8711 88.4392 26.1773C89.3525 25.8027 90.233 25.3494 91.1332 24.9354L92.0005 24.5346C91.8954 25.0011 91.8493 25.3231 91.7574 25.6188C90.6752 28.9068 88.8339 31.8939 86.3826 34.3379C85.1541 35.6132 83.7878 36.7481 82.3088 37.7218C82.0854 37.8664 81.8752 38.0306 81.6518 38.1817C81.7438 38.9374 82.6177 38.9045 82.8542 39.4959C82.6768 40.1069 82.138 40.4092 81.6452 40.7311C79.672 42.0374 77.5902 43.1717 75.4229 44.1216C72.6168 45.4165 69.645 46.3164 66.592 46.7958C63.9518 47.2761 61.2315 47.0494 58.7073 46.1387C58.1028 45.9022 57.5246 45.5934 56.8478 45.2714C56.7887 46.4607 56.7361 47.558 56.677 48.7276C56.5228 48.7144 56.3707 48.6835 56.2236 48.6356C54.4035 47.7025 52.5638 46.7827 50.7306 45.8168C49.2957 45.056 47.9697 44.1057 46.7882 42.9914C44.5394 40.763 42.9949 37.923 42.3465 34.8242C42.1231 33.9043 41.972 32.9647 41.7551 31.8937Z" fill="#13B206"/>
<path d="M71.6979 82.1854L71.8293 81.0355H73.0186C73.0186 81.3246 73.0646 81.6203 73.0646 81.9094C73.0646 84.6625 73.0646 87.4221 73.0646 90.1752C73.0537 90.8622 72.9767 91.5465 72.8346 92.2187C72.7544 92.667 72.5368 93.0792 72.2118 93.3982C71.8869 93.7173 71.4708 93.9273 71.0211 93.9993C69.7236 94.2946 68.3763 94.2946 67.0787 93.9993C65.8238 93.7168 65.1864 92.8494 65.1076 91.4302C65.2191 91.396 65.3334 91.3719 65.4492 91.3579H66.2114C66.2968 91.4302 66.3691 91.4565 66.3823 91.5025C66.4428 91.9407 66.673 92.3376 67.0231 92.608C67.3733 92.8783 67.8156 93.0004 68.2549 92.948C69.031 92.9581 69.8067 92.9054 70.5743 92.7903C70.8633 92.7531 71.1296 92.6144 71.3258 92.399C71.522 92.1835 71.6352 91.9054 71.6453 91.6142C71.711 90.9177 71.6453 90.2081 71.6453 89.3408C71.3628 89.6101 71.1854 89.7547 71.0408 89.9255C70.1406 90.944 66.8028 90.8126 65.896 89.8598C65.375 89.3062 65.0818 88.5766 65.0747 87.8164C65.0024 86.4419 65.0024 85.0645 65.0747 83.69C65.193 81.87 66.0537 81.0618 67.8672 80.9173C68.4033 80.8844 68.9409 80.8844 69.477 80.9173C69.8234 80.9297 70.1631 81.0158 70.4736 81.1699C70.784 81.324 71.058 81.5425 71.2774 81.8109C71.4153 81.9226 71.527 82.0145 71.6979 82.1854ZM66.494 85.6809V87.3893C66.4874 87.5075 66.4874 87.6259 66.494 87.7441C66.6451 88.8874 67.0985 89.3276 68.2352 89.3999C68.5941 89.4195 68.9538 89.4195 69.3127 89.3999C70.7386 89.3145 71.5599 88.6049 71.6913 87.1987C71.7866 86.2133 71.7866 85.2209 71.6913 84.2354C71.5533 82.9213 70.8634 82.2642 69.5296 82.1197C69.0558 82.0671 68.5776 82.0671 68.1038 82.1197C67.013 82.2445 66.6254 82.619 66.5202 83.7163C66.4788 84.3704 66.4701 85.026 66.494 85.6809Z" fill="#13B206"/>
<path d="M20.3671 89.3196C18.8296 90.9885 17.1278 90.7848 15.3997 90.3183C15.0835 90.2289 14.7946 90.0619 14.5593 89.8323C14.3241 89.6028 14.1499 89.3181 14.0528 89.0042C13.9047 88.6122 13.8161 88.2002 13.7899 87.782C13.7899 86.4351 13.7242 85.0881 13.7899 83.7411C13.8819 81.9342 14.7427 81.1129 16.543 80.942C17.0507 80.9125 17.5597 80.9125 18.0674 80.942C18.4577 80.9438 18.8422 81.0368 19.1902 81.2137C19.5381 81.3905 19.8399 81.6462 20.0714 81.9605C20.1691 82.0749 20.2744 82.1825 20.3868 82.2824L20.492 81.0537H21.609C21.6459 81.2712 21.6701 81.4906 21.6812 81.7108C21.6812 84.7004 21.6812 87.6966 21.6812 90.6862C21.6726 91.2244 21.6042 91.7598 21.4775 92.2829C21.3924 92.7142 21.1786 93.1096 20.8642 93.4169C20.5498 93.7242 20.1497 93.929 19.7166 94.0044C18.3985 94.3132 17.0267 94.3132 15.7086 94.0044C14.4864 93.7153 13.8754 92.8742 13.8162 91.4419H15.1106C15.1566 91.5733 15.2092 91.7112 15.2486 91.8492C15.3149 92.1119 15.4577 92.3489 15.6589 92.5302C15.8601 92.7116 16.1107 92.829 16.3788 92.8677C17.3191 93.0647 18.2901 93.0647 19.2304 92.8677C19.5459 92.8253 19.8367 92.6741 20.0526 92.4402C20.2686 92.2062 20.396 91.9043 20.4131 91.5864C20.4394 90.8702 20.3671 90.1934 20.3671 89.3196ZM15.0449 85.6926C15.0909 86.4219 15.1041 87.2038 15.2026 87.9726C15.2017 88.1571 15.2378 88.34 15.3088 88.5104C15.3798 88.6807 15.4842 88.8351 15.616 88.9643C15.7477 89.0936 15.904 89.1951 16.0756 89.2629C16.2473 89.3307 16.4308 89.3634 16.6153 89.359C17.2065 89.434 17.8048 89.434 18.3959 89.359C18.8851 89.3403 19.3498 89.1402 19.6996 88.7977C20.0494 88.4552 20.2592 87.9948 20.2883 87.5061C20.3967 86.3193 20.3967 85.125 20.2883 83.9382C20.2514 83.4808 20.0512 83.0519 19.7243 82.7298C19.3974 82.4077 18.9656 82.2139 18.5076 82.1839C17.8859 82.105 17.2567 82.105 16.635 82.1839C15.6954 82.289 15.3209 82.6832 15.2158 83.6294C15.1106 84.2668 15.1106 84.9567 15.0712 85.6926H15.0449Z" fill="#13B206"/>
<path d="M12.1096 90.4584H10.6838C10.3553 89.6042 10.0267 88.7435 9.70477 87.8827C9.38281 87.022 9.38281 87.0285 8.50892 87.022H2.52311C2.09602 88.1718 1.6755 89.2823 1.24184 90.4321H0C0 89.7751 4.12633 78.3751 4.82282 77.0347H7.14881L12.1096 90.4584ZM3.05533 85.7801C5.02651 85.7801 6.89913 85.7801 8.92944 85.7801L7.84529 82.7905C7.35907 81.4764 6.88599 80.1623 6.38005 78.8482C6.33452 78.7492 6.26898 78.6607 6.18756 78.5883C6.10613 78.516 6.01059 78.4612 5.90697 78.4276C5.82155 78.4276 5.63757 78.6642 5.51273 78.8153C5.4675 78.89 5.43632 78.9724 5.42074 79.0584C4.68922 81.0515 3.96207 83.0424 3.2393 85.0311C3.16336 85.277 3.10193 85.5271 3.05533 85.7801Z" fill="#13B206"/>
<path d="M62.5707 85.7862C62.5181 86.6207 62.505 87.4617 62.3933 88.2831C62.3566 88.8448 62.1207 89.3751 61.7281 89.7786C61.3355 90.182 60.8118 90.4322 60.2513 90.4842C58.9462 90.7233 57.6071 90.7055 56.3089 90.4317C55.848 90.3467 55.4243 90.1221 55.0952 89.7883C54.7661 89.4545 54.5476 89.0277 54.4691 88.5656C54.3623 88.0995 54.3007 87.6243 54.2852 87.1464C54.2852 86.2199 54.2852 85.2869 54.2852 84.3604C54.294 83.9428 54.3424 83.527 54.4297 83.1186C54.7057 81.8045 55.3824 81.0948 56.7228 80.9766C57.8158 80.8796 58.9152 80.8796 60.0081 80.9766C61.3223 81.0948 62.0187 81.7847 62.321 83.0989C62.378 83.2712 62.4134 83.45 62.4261 83.6311C62.4261 84.3473 62.4261 85.0635 62.4261 85.7797L62.5707 85.7862ZM61.0923 85.7205H61.1843C61.1383 84.9781 61.1514 84.2224 61.0332 83.4865C61.0338 83.3041 60.9965 83.1236 60.9236 82.9564C60.8507 82.7892 60.7438 82.6391 60.6096 82.5155C60.4755 82.3919 60.3172 82.2975 60.1446 82.2385C59.972 82.1794 59.7891 82.1569 59.6073 82.1724C58.7947 82.0988 57.9777 82.0857 57.1631 82.133C56.276 82.2053 55.849 82.5206 55.803 83.4011C55.723 84.9491 55.7384 86.5005 55.849 88.0465C55.9015 88.9401 56.368 89.2818 57.2748 89.3606C57.9617 89.4067 58.651 89.4067 59.3379 89.3606C60.5009 89.3081 60.974 88.8941 61.0989 87.7443C61.1361 87.0703 61.1383 86.3948 61.1054 85.7205H61.0923Z" fill="#13B206"/>
<path d="M32.9961 85.8128C33.0684 84.8535 33.0684 83.9796 33.2195 83.132C33.2588 82.5553 33.5126 82.0142 33.931 81.6153C34.3493 81.2164 34.9019 80.9886 35.4798 80.9768C36.6097 80.8717 37.7469 80.8717 38.8768 80.9768C39.4437 80.9869 39.9862 81.2091 40.3973 81.5996C40.8084 81.99 41.0583 82.5204 41.0976 83.086C41.3906 84.859 41.3906 86.668 41.0976 88.441C41.0419 88.9492 40.8174 89.4241 40.4601 89.7897C40.1028 90.1554 39.6332 90.3907 39.1265 90.4582C37.8018 90.7167 36.4386 90.7056 35.1184 90.4253C34.655 90.3513 34.227 90.1319 33.8963 89.7989C33.5657 89.4659 33.3494 89.0364 33.2786 88.5724C33.1078 87.6394 33.0749 86.6801 32.9961 85.8128ZM34.3825 85.6222C34.4482 86.483 34.4942 87.3174 34.5796 88.1453C34.5963 88.4668 34.7345 88.7698 34.9663 88.9931C35.1981 89.2164 35.5062 89.3432 35.828 89.3477C36.7225 89.4167 37.6209 89.4167 38.5154 89.3477C38.8351 89.3345 39.139 89.205 39.3701 88.9836C39.6011 88.7623 39.7435 88.4642 39.7704 88.1453C40.0036 86.5748 40.0036 84.9784 39.7704 83.4079C39.7688 83.2394 39.7332 83.073 39.6656 82.9186C39.598 82.7642 39.4999 82.6251 39.3771 82.5097C39.2543 82.3943 39.1094 82.3049 38.9511 82.247C38.7929 82.1891 38.6245 82.1638 38.4563 82.1727C37.5921 82.1135 36.725 82.1135 35.8609 82.1727C35.5402 82.1634 35.2283 82.2787 34.9907 82.4942C34.7531 82.7098 34.6081 83.009 34.5862 83.3291C34.5008 84.1044 34.4482 84.8666 34.3825 85.6222Z" fill="#13B206"/>
<path d="M45.4769 89.1892H53.0725V90.4244H44.1562V77.0664H45.4704L45.4769 89.1892Z" fill="#13B206"/>
<path d="M26.0994 90.4369H24.8379V81.0015C25.0613 81.0015 25.2321 81.0015 25.4095 81.0015C25.5869 81.0015 25.7578 81.0015 25.9615 81.0015L26.0666 81.9083C26.1323 81.9083 26.2111 81.9083 26.2309 81.9083C27.1967 80.6861 28.5043 80.7453 29.8315 80.9752C30.13 81.0256 30.4094 81.1552 30.6406 81.3505C30.8718 81.5459 31.0462 81.7998 31.1457 82.0857C31.4253 82.7632 31.5028 83.5071 31.3691 84.2277H30.2258C30.1666 83.8926 30.1009 83.5706 30.0484 83.2027C30.0229 82.925 29.9002 82.6652 29.7018 82.4693C29.5034 82.2733 29.2422 82.1537 28.9642 82.1317C27.2624 81.882 26.2177 82.5785 26.1586 84.2671C26.0994 85.9557 26.1126 87.5524 26.0994 89.2016C26.0929 89.5564 26.0994 89.9375 26.0994 90.4369Z" fill="#13B206"/>
</svg>
