<?xml version="1.0" standalone="no"?>
<!DOCTYPE svg PUBLIC "-//W3C//DTD SVG 20010904//EN"
 "http://www.w3.org/TR/2001/REC-SVG-20010904/DTD/svg10.dtd">
<svg version="1.0" xmlns="http://www.w3.org/2000/svg"
 width="477.000000pt" height="715.000000pt" viewBox="0 0 477.000000 715.000000"
 preserveAspectRatio="xMidYMid meet">

<g transform="translate(0.000000,715.000000) scale(0.100000,-0.100000)"
fill="#000000" stroke="none">
<path d="M2767 6784 c-1 -2 -68 -6 -147 -9 -79 -4 -148 -9 -152 -11 -4 -3 -40
-7 -79 -10 -39 -2 -75 -7 -81 -10 -5 -4 -26 -8 -47 -10 -60 -6 -344 -83 -419
-113 -26 -11 -94 -38 -152 -61 -102 -41 -294 -133 -316 -151 -6 -5 -13 -7 -16
-4 -3 3 -11 -1 -18 -10 -7 -8 -17 -15 -22 -15 -5 0 -61 -34 -124 -75 -63 -41
-120 -74 -126 -72 -7 1 -12 -5 -13 -13 0 -8 -9 -15 -20 -15 -11 -1 -19 -6 -18
-13 2 -9 -29 -33 -47 -36 -3 -1 -4 -4 -3 -8 3 -8 -38 -33 -47 -30 -3 1 -5 -2
-5 -7 0 -15 -20 -32 -41 -35 -11 -2 -19 -8 -19 -13 0 -6 -52 -59 -115 -118
-127 -118 -158 -150 -119 -120 14 11 3 -2 -25 -29 -28 -28 -42 -44 -31 -37 11
7 2 -4 -20 -24 -22 -21 -33 -34 -25 -29 9 5 2 -4 -15 -19 -16 -16 -23 -26 -15
-22 8 4 4 -3 -10 -15 -14 -12 -18 -19 -10 -15 8 3 2 -6 -15 -20 -16 -15 -23
-24 -15 -20 8 4 4 -3 -10 -15 -14 -12 -19 -19 -12 -15 21 11 13 -5 -15 -32
-16 -15 -21 -23 -13 -19 8 4 6 0 -4 -8 -11 -9 -16 -16 -11 -16 5 0 0 -7 -11
-16 -10 -8 -13 -12 -6 -9 9 5 6 -8 -7 -34 -12 -23 -26 -41 -32 -41 -6 0 -8 -4
-5 -9 9 -14 -5 -42 -17 -34 -6 4 -8 0 -4 -10 3 -10 2 -17 -4 -17 -6 0 -7 -4
-4 -10 3 -5 2 -10 -4 -10 -6 0 -7 -7 -4 -17 5 -12 3 -14 -7 -8 -10 6 -12 4 -7
-8 4 -10 2 -17 -4 -17 -6 0 -9 -7 -5 -15 3 -8 1 -15 -5 -15 -6 0 -9 -7 -5 -15
3 -8 1 -15 -4 -15 -8 0 -21 -44 -25 -80 0 -9 -4 -20 -8 -27 -4 -6 -4 -18 -1
-27 4 -9 1 -16 -6 -16 -8 0 -11 -10 -7 -29 3 -15 2 -32 -3 -37 -27 -27 -37
-436 -11 -420 4 3 5 -11 3 -30 -2 -19 0 -34 6 -34 5 0 7 -11 4 -25 -2 -15 0
-25 8 -25 7 0 9 -8 5 -19 -3 -11 -1 -22 4 -25 6 -4 8 -13 4 -21 -3 -8 0 -15 6
-15 6 0 8 -7 5 -15 -4 -8 -1 -15 5 -15 6 0 8 -7 5 -15 -4 -8 -1 -15 5 -15 6 0
8 -7 5 -15 -4 -8 -1 -15 5 -15 6 0 8 -7 4 -17 -5 -12 -3 -14 7 -8 10 6 12 4 7
-8 -3 -10 -2 -17 4 -17 6 0 8 -4 5 -9 -8 -12 4 -42 14 -36 4 2 12 -7 19 -21 6
-14 7 -23 1 -19 -6 3 -7 -1 -4 -9 3 -9 9 -14 14 -11 4 2 12 -7 19 -21 9 -20 9
-24 -1 -19 -7 4 -2 -3 12 -15 14 -12 18 -18 10 -14 -8 4 -2 -5 13 -19 16 -15
25 -32 21 -39 -4 -7 -3 -8 4 -4 11 7 17 -6 13 -27 -1 -5 3 -6 8 -2 10 6 34
-29 25 -37 -2 -3 4 -11 13 -19 17 -13 17 -12 4 6 -7 11 1 5 17 -14 17 -19 29
-37 27 -41 -6 -10 112 -123 131 -126 20 -3 39 -21 39 -37 0 -7 7 -12 15 -12
22 0 141 -96 133 -108 -3 -6 -1 -7 6 -3 15 10 43 -13 34 -27 -3 -6 -1 -7 6 -3
15 9 73 -32 65 -46 -4 -7 -2 -8 4 -4 14 8 84 -42 76 -55 -3 -5 1 -7 8 -4 7 3
44 -20 82 -51 66 -54 75 -55 32 -4 l-21 25 29 -25 c27 -24 51 -66 48 -82 -1
-5 4 -7 11 -5 6 1 11 -4 9 -11 -1 -8 2 -11 9 -7 7 5 3 15 -12 31 l-23 25 32
-14 c18 -7 40 -27 48 -43 20 -38 37 -56 29 -29 -3 11 3 3 15 -17 11 -21 34
-48 50 -60 27 -19 77 -88 65 -88 -3 0 -37 33 -76 73 -70 71 -71 71 -21 12 85
-103 191 -269 294 -460 103 -189 228 -344 341 -420 53 -36 126 -142 600 -880
441 -687 603 -917 746 -1062 176 -180 343 -269 523 -280 208 -13 375 70 488
243 49 75 56 90 88 194 39 126 46 189 46 405 0 174 -4 230 -22 325 -27 141
-45 203 -56 193 -5 -4 -5 2 -2 15 5 14 3 22 -4 22 -6 0 -9 4 -5 9 3 5 1 12 -4
16 -6 3 -7 13 -4 22 5 12 3 14 -6 8 -10 -5 -11 -2 -6 14 4 13 2 21 -5 21 -7 0
-10 7 -6 15 3 8 1 15 -5 15 -6 0 -8 7 -5 16 4 10 2 13 -6 8 -8 -5 -9 -2 -5 9
4 10 2 17 -4 17 -6 0 -9 7 -5 15 3 8 1 15 -5 15 -6 0 -8 7 -5 16 4 10 2 13 -6
8 -8 -5 -9 -2 -5 9 4 10 2 17 -4 17 -6 0 -8 7 -5 16 3 8 2 12 -4 9 -9 -6 -14
10 -13 42 1 7 -3 10 -8 7 -8 -5 -13 12 -12 43 1 7 -3 11 -7 8 -12 -7 -23 32
-14 46 5 8 3 9 -6 4 -10 -6 -12 -4 -7 9 4 10 3 15 -3 11 -9 -6 -14 10 -13 42
1 7 -4 10 -10 6 -6 -4 -8 0 -4 11 4 9 3 15 -2 12 -12 -8 -35 50 -25 65 5 8 3
9 -6 4 -10 -6 -12 -4 -7 9 4 9 3 15 -2 12 -12 -8 -45 70 -36 86 5 7 4 9 -1 5
-7 -7 -295 564 -293 581 4 25 -2 42 -13 36 -8 -5 -9 -2 -5 10 4 9 3 15 -2 12
-12 -8 -35 50 -25 65 4 7 3 10 -4 5 -13 -8 -47 78 -37 95 5 8 4 10 -3 5 -7 -4
-12 -6 -12 -4 0 2 -16 50 -35 107 -37 112 -46 158 -14 76 11 -27 17 -39 14
-25 -18 78 -34 180 -35 214 0 21 -18 128 -41 238 l-41 200 174 176 c475 484
681 775 765 1085 10 37 21 67 26 67 4 0 5 4 2 10 -3 5 -1 37 6 71 7 37 15 56
20 48 4 -7 5 7 3 32 -4 29 -2 39 4 31 6 -9 7 4 4 39 -3 29 -1 50 4 46 5 -3 9
51 9 123 0 70 -4 123 -8 117 -4 -7 -7 12 -5 41 2 28 -1 52 -6 52 -5 0 -6 17
-3 38 5 27 4 33 -4 22 -8 -11 -9 -7 -5 18 4 23 2 31 -6 26 -8 -5 -9 1 -4 20 5
20 4 26 -5 20 -9 -5 -10 -1 -7 14 4 14 2 20 -5 15 -6 -4 -8 2 -5 15 4 12 3 20
-2 17 -10 -6 -23 43 -14 57 5 7 2 8 -6 3 -10 -6 -12 -3 -8 13 4 12 3 20 -1 17
-12 -7 -54 93 -45 106 4 7 3 9 -3 6 -6 -4 -28 23 -49 60 -42 71 -146 189 -176
199 -10 3 -16 9 -13 14 3 4 -5 10 -18 14 -12 3 -35 18 -52 33 -33 31 -111 83
-125 83 -4 0 -10 3 -12 8 -3 7 -182 98 -253 127 -75 32 -217 75 -226 70 -5 -4
-9 -2 -9 2 0 8 -15 12 -57 15 -7 1 -13 4 -13 7 0 3 -24 7 -53 8 -28 1 -65 5
-82 8 -87 16 -507 40 -518 29z m205 -30 c45 -18 98 -60 98 -78 0 -6 -7 -3 -15
8 -8 10 -27 20 -42 21 -15 2 -44 6 -63 10 -26 5 -31 4 -20 -4 18 -13 3 -13
-25 -1 -14 6 -16 9 -5 10 29 4 -66 19 -130 21 l-65 1 50 13 c72 19 167 18 217
-1z m-537 -515 c17 -9 36 -14 43 -12 6 3 12 0 12 -6 0 -6 5 -11 11 -11 12 0
48 -40 49 -54 0 -5 -9 3 -21 18 -11 14 -25 23 -31 20 -7 -4 -4 -10 6 -16 24
-14 19 -46 -11 -73 -19 -17 -24 -27 -17 -32 9 -6 8 -12 -3 -22 -12 -11 -14
-10 -11 4 2 10 -3 20 -11 23 -8 3 -11 0 -7 -7 9 -14 -10 -33 -52 -50 -26 -11
-35 -11 -47 -1 -13 11 -14 10 -9 -3 5 -13 -23 -38 -46 -42 -3 -1 -22 -7 -42
-15 -27 -10 -34 -17 -25 -23 7 -5 -3 -7 -27 -3 -21 3 -36 2 -32 -1 3 -3 -2
-12 -12 -19 -22 -17 -32 -17 -28 -1 1 6 1 9 -1 4 -3 -4 -9 -5 -14 -1 -13 7
-11 -10 2 -23 8 -8 7 -13 -2 -18 -8 -5 -10 -4 -5 3 4 7 1 12 -8 12 -9 0 -16
-5 -16 -11 0 -5 -5 -7 -12 -3 -9 6 -9 9 0 12 11 3 18 32 8 32 -15 0 -35 -13
-31 -20 3 -5 1 -11 -5 -15 -5 -3 -10 -1 -10 4 0 6 -5 11 -11 11 -5 0 -8 -4 -5
-8 2 -4 -4 -8 -15 -8 -13 0 -18 5 -14 15 4 11 3 11 -9 2 -9 -8 -16 -9 -21 -2
-3 6 -21 18 -40 27 -19 9 -35 24 -36 33 0 10 -2 11 -6 3 -5 -13 -23 -7 -23 9
0 6 5 7 10 4 6 -3 10 1 10 9 0 9 4 16 10 16 5 0 7 -7 4 -15 -4 -8 -1 -15 5
-15 6 0 11 7 11 16 0 8 5 12 10 9 6 -3 10 -1 10 4 0 6 -7 11 -15 11 -8 0 -15
5 -15 11 0 6 7 9 15 5 8 -3 15 -1 15 4 0 6 -7 10 -16 10 -12 0 -10 5 9 20 14
11 30 20 35 20 6 0 23 15 37 33 15 17 25 24 21 15 -3 -10 -1 -18 4 -18 6 0 10
7 10 16 0 10 6 14 14 11 10 -4 13 -1 9 9 -5 12 7 19 30 15 4 0 7 8 7 19 0 11
5 20 11 20 5 0 8 -4 5 -8 -3 -5 8 -9 25 -9 16 0 25 4 18 8 -8 4 -4 9 10 14 11
3 25 3 31 0 5 -3 10 -2 10 4 0 5 -5 12 -10 14 -6 3 -5 4 2 3 7 -2 21 1 32 6
12 7 16 7 12 0 -3 -6 -2 -14 4 -17 6 -4 10 -3 9 2 -4 23 3 31 22 26 12 -4 25
0 30 8 6 10 9 10 9 2 0 -7 7 -13 16 -13 8 0 12 4 9 10 -3 5 0 7 8 5 7 -3 24
-2 38 3 13 5 26 7 29 3 3 -3 19 -13 35 -22z m38 4 c-7 -2 -19 -2 -25 0 -7 3
-2 5 12 5 14 0 19 -2 13 -5z m38 -10 c13 -16 12 -17 -3 -4 -10 7 -18 15 -18
17 0 8 8 3 21 -13z m-551 -133 c0 -5 -2 -10 -4 -10 -3 0 -8 5 -11 10 -3 6 -1
10 4 10 6 0 11 -4 11 -10z m550 -10 c0 -5 -5 -10 -11 -10 -5 0 -7 5 -4 10 3 6
8 10 11 10 2 0 4 -4 4 -10z m1097 -56 c123 -18 248 -53 338 -93 64 -29 65 -30
65 -70 0 -88 -48 -255 -113 -391 -238 -500 -849 -999 -1522 -1244 -55 -20
-121 -45 -147 -55 -38 -15 -49 -16 -58 -6 -54 64 -409 65 -473 0 -8 -8 -17
-11 -21 -8 -3 4 -6 1 -6 -5 0 -7 -5 -12 -11 -12 -22 0 -75 -80 -62 -94 4 -3
-75 -6 -174 -6 -196 0 -356 21 -486 62 -81 26 -83 31 -74 162 18 264 167 571
400 822 31 34 54 63 52 66 -3 3 3 11 12 19 17 13 17 13 3 -6 -14 -20 -14 -20
7 -1 13 10 20 24 16 30 -3 6 -3 8 2 4 4 -4 45 28 91 71 337 319 916 615 1411
721 229 49 553 64 750 34z m-1178 -18 c-15 -13 -49 -25 -49 -17 0 5 8 12 18
14 24 6 36 8 31 3z m-63 -28 c5 -7 2 -9 -9 -5 -8 3 -21 -1 -28 -9 -6 -8 -14
-12 -17 -9 -6 5 27 34 40 35 4 0 10 -5 14 -12z m-90 -33 c-11 -8 -25 -15 -30
-15 -6 1 0 7 14 15 32 19 40 18 16 0z m-361 -45 c4 -6 9 -9 13 -7 4 2 15 -4
25 -15 23 -24 6 -23 -26 2 -26 20 -42 26 -33 12 2 -4 -5 -9 -16 -9 -20 -2 -20
-1 -2 12 23 17 31 18 39 5z m265 0 c-8 -5 -19 -10 -25 -10 -5 0 -3 5 5 10 8 5
20 10 25 10 6 0 3 -5 -5 -10z m-245 -48 c-3 -3 -11 0 -18 7 -9 10 -8 11 6 5
10 -3 15 -9 12 -12z m498 -1719 c-7 -2 -13 -9 -13 -14 0 -6 6 -9 13 -8 20 3
77 -13 77 -21 0 -5 11 -7 24 -6 17 2 23 -1 19 -11 -3 -9 0 -11 10 -7 20 7 60
-14 51 -27 -4 -7 1 -7 15 0 18 10 20 9 14 -5 -5 -12 -3 -15 6 -9 7 4 16 4 20
-1 15 -21 51 -32 92 -29 l44 4 -40 -8 c-103 -23 -145 -55 -145 -111 0 -20 -5
-41 -12 -48 -9 -9 -7 -18 9 -39 11 -16 19 -36 17 -46 -1 -9 2 -17 8 -17 6 0 8
-7 4 -15 -3 -8 -1 -15 4 -15 6 0 10 -7 10 -16 0 -8 5 -12 10 -9 6 3 10 -1 10
-10 0 -9 4 -14 9 -10 13 8 18 -45 7 -72 -7 -17 -5 -28 9 -43 10 -11 19 -35 20
-55 3 -53 55 -103 114 -111 75 -10 208 -1 240 15 11 7 21 9 21 5 0 -3 6 -1 13
5 8 6 17 8 20 4 4 -3 7 1 7 10 0 9 6 14 13 12 16 -6 51 21 43 33 -3 5 2 9 11
8 11 -1 19 10 24 34 8 39 3 54 -17 46 -9 -3 -6 6 8 24 17 23 19 33 10 42 -7 7
-12 27 -12 44 0 21 -10 44 -27 65 -22 26 -23 29 -6 18 24 -14 43 -50 43 -79 0
-30 39 -112 50 -105 5 3 10 2 10 -4 0 -6 7 -8 15 -5 20 8 19 -5 -2 -28 -16
-18 -16 -19 7 -10 18 7 29 6 37 -3 10 -11 10 -15 0 -18 -7 -3 -4 -6 6 -6 9 -1
17 -6 17 -12 0 -5 -4 -8 -8 -5 -5 3 -6 -8 -4 -24 2 -17 8 -27 13 -25 4 3 6 13
3 23 -5 15 -5 15 6 -1 6 -9 8 -23 3 -30 -4 -6 -8 -16 -8 -21 0 -5 -7 -11 -15
-13 -12 -4 -12 -3 -1 5 9 7 10 12 2 16 -11 7 -14 -3 -11 -41 1 -13 -6 -23 -17
-26 -10 -2 -5 -3 11 -1 16 3 39 12 50 22 21 17 21 17 2 -5 -37 -44 -300 -107
-555 -133 -206 -20 -474 -6 -616 34 -45 13 -47 14 -17 15 30 1 35 8 31 37 0 4
4 10 11 14 6 4 13 16 14 26 2 10 9 18 15 16 6 -1 11 6 11 17 0 10 8 29 18 42
10 13 33 56 51 94 18 39 37 77 42 85 20 31 39 80 39 99 0 11 -19 42 -42 68
-24 27 -53 62 -65 78 l-22 30 -1 -26 c0 -14 -10 -35 -23 -47 -23 -22 -116 -67
-123 -59 -2 2 14 12 37 22 41 19 89 67 89 89 0 17 -50 63 -82 75 l-27 10 29
30 c17 16 31 39 31 50 4 64 0 88 -16 104 -8 8 -11 17 -8 21 4 3 56 6 117 5 61
0 105 -3 99 -6z m-839 -138 c3 -13 20 -40 36 -59 l30 -34 -29 -12 c-16 -6 -37
-20 -47 -31 -15 -17 -16 -24 -5 -60 10 -33 20 -44 54 -60 23 -10 35 -19 27
-19 -21 0 -93 34 -107 51 -6 8 -13 25 -15 39 -3 24 -4 23 -27 -15 -13 -22 -37
-53 -52 -70 -56 -61 -57 -93 -3 -158 13 -16 24 -35 24 -42 0 -8 10 -24 23 -36
l22 -21 -25 7 c-57 15 -190 86 -228 120 -56 50 -79 112 -63 166 15 50 75 116
143 160 49 32 201 98 224 99 7 0 15 -11 18 -25z m1402 -34 c97 -28 97 -54 0
-49 -56 2 -72 0 -69 -9 7 -17 -3 -16 -32 3 -21 13 -40 15 -112 9 -49 -5 -97
-9 -108 -9 -11 -1 -26 -5 -32 -9 -16 -10 -16 -2 -3 23 10 18 77 45 135 53 43
7 184 -1 221 -12z m-853 -72 c52 -27 96 -87 81 -110 -3 -5 -20 2 -37 16 -18
14 -45 36 -61 49 -20 15 -27 28 -23 39 8 20 11 21 40 6z m-396 -25 c2 -7 -11
-21 -30 -33 -19 -11 -46 -33 -61 -47 -26 -27 -26 -27 -26 -4 0 28 73 103 96
98 10 -2 19 -8 21 -14z m-1172 -84 c33 -33 57 -60 54 -60 -2 0 -31 27 -64 60
-33 33 -57 60 -54 60 2 0 31 -27 64 -60z m2328 53 c-7 -2 -21 -2 -30 0 -10 3
-4 5 12 5 17 0 24 -2 18 -5z m89 -72 c-9 -5 11 -10 52 -13 62 -5 116 -27 116
-47 0 -13 -56 -17 -139 -11 -63 5 -74 3 -82 -12 -13 -25 -28 -23 -22 3 5 19 2
20 -43 14 -27 -3 -69 -7 -93 -9 -24 -2 -47 -10 -52 -17 -6 -11 -9 -8 -9 8 0
30 46 60 117 77 64 16 176 21 155 7z m-1931 -48 c13 -16 12 -17 -3 -4 -10 7
-18 15 -18 17 0 8 8 3 21 -13z m814 -3 c15 -6 8 -9 -27 -9 -26 -1 -50 4 -53 9
-8 12 52 12 80 0z m-627 -155 c29 -16 50 -30 47 -33 -9 -9 -117 63 -173 116
l-57 53 66 -54 c36 -30 89 -67 117 -82z m690 118 c-10 -2 -26 -2 -35 0 -10 3
-2 5 17 5 19 0 27 -2 18 -5z m1055 -60 c-13 -2 -33 -2 -45 0 -13 2 -3 4 22 4
25 0 35 -2 23 -4z m-1922 -160 c13 -16 12 -17 -3 -4 -10 7 -18 15 -18 17 0 8
8 3 21 -13z m2334 -3 c3 -5 1 -10 -4 -10 -6 0 -11 5 -11 10 0 6 2 10 4 10 3 0
8 -4 11 -10z m-2300 -40 c10 -11 16 -20 13 -20 -3 0 -13 9 -23 20 -10 11 -16
20 -13 20 3 0 13 -9 23 -20z m2446 -86 c32 -25 59 -49 59 -54 0 -11 -50 -50
-64 -50 -12 0 -49 55 -53 79 -1 8 -9 19 -18 24 -13 7 -14 11 -3 25 11 13 11
14 -1 7 -10 -5 -12 -4 -7 3 12 19 25 14 87 -34z m222 -1715 c12 12 57 -15 57
-35 0 -8 4 -14 8 -14 4 0 8 -9 9 -21 1 -12 10 -27 19 -33 11 -8 14 -18 9 -27
-5 -8 -5 -11 0 -7 11 10 38 -29 30 -42 -3 -6 -1 -10 5 -10 7 0 10 -6 8 -12 -3
-7 1 -19 8 -26 7 -7 11 -19 7 -27 -3 -9 0 -22 6 -29 9 -11 9 -15 0 -18 -9 -3
-8 -8 3 -18 14 -13 14 -16 -1 -28 -9 -7 -10 -11 -3 -7 6 3 12 0 12 -7 0 -8 -6
-20 -12 -27 -11 -10 -9 -11 7 -5 17 7 18 5 8 -8 -7 -8 -10 -18 -6 -21 3 -4 -1
-7 -10 -7 -10 0 -14 -6 -11 -14 3 -8 1 -17 -5 -21 -6 -3 -9 0 -5 9 6 16 -29
32 -47 20 -8 -4 -9 -3 -5 5 4 6 1 14 -8 17 -8 3 -12 12 -9 20 3 8 0 14 -7 14
-6 0 -8 5 -4 12 5 7 2 9 -8 5 -12 -4 -15 0 -13 18 1 13 -3 23 -8 22 -6 -1 -12
3 -13 8 -1 6 -5 21 -9 33 -6 18 -10 21 -17 10 -5 -8 -6 -2 -2 16 4 17 3 27 -2
23 -6 -3 -11 8 -12 25 -2 17 -10 37 -20 45 -16 12 -15 13 3 6 l20 -6 -20 23
c-11 13 -15 21 -9 17 6 -3 11 1 11 9 0 8 -6 13 -14 10 -7 -3 -13 -1 -13 4 0 6
3 10 8 10 4 0 13 9 20 20 13 21 12 21 -15 3 -27 -17 -28 -17 -13 1 8 11 14 27
12 38 -2 10 0 17 5 16 4 -2 8 2 8 7 0 6 -2 9 -5 8 -3 -1 -7 7 -7 18 -2 18 1
17 19 -6 14 -18 24 -23 31 -16z"/>
<path d="M2467 6113 c-4 -3 -7 -11 -7 -17 0 -6 5 -5 12 2 6 6 9 14 7 17 -3 3
-9 2 -12 -2z"/>
<path d="M2400 6050 c0 -5 5 -10 11 -10 5 0 7 5 4 10 -3 6 -8 10 -11 10 -2 0
-4 -4 -4 -10z"/>
<path d="M1912 5968 c-15 -15 -15 -28 0 -28 6 0 8 3 5 7 -4 3 -2 12 4 20 14
16 7 17 -9 1z"/>
<path d="M3184 3342 c6 -11 -46 -30 -144 -53 -62 -15 -276 -19 -302 -5 -13 6
-18 4 -18 -8 0 -23 43 -31 146 -29 96 2 262 31 311 55 30 14 37 38 14 46 -8 3
-11 0 -7 -6z"/>
<path d="M3280 3320 c-9 -6 -10 -10 -3 -10 6 0 15 5 18 10 8 12 4 12 -15 0z"/>
<path d="M3765 1410 c3 -5 8 -10 11 -10 2 0 4 5 4 10 0 6 -5 10 -11 10 -5 0
-7 -4 -4 -10z"/>
<path d="M3910 1199 c0 -5 5 -7 10 -4 6 3 10 8 10 11 0 2 -4 4 -10 4 -5 0 -10
-5 -10 -11z"/>
<path d="M3843 2739 l-32 -9 33 -73 c18 -39 80 -166 138 -281 l105 -210 18 28
c28 42 30 112 6 202 -31 112 -113 274 -162 318 -41 38 -53 40 -106 25z"/>
</g>
</svg>
